<svg height="127" viewBox="0 0 128 127" width="128" xmlns="http://www.w3.org/2000/svg"><path d="m14.469027 80.101364c-.011526-14.232513.09343-18.840317.244105-20.030235.249068-1.966957.307134-2.105683 1.564429-3.737648.718167-.932175 3.01956-3.735916 5.114203-6.230545 2.094644-2.494621 4.102346-4.752571 4.461559-5.01767.601988-.444267.702566-.454368 1.284819-.129097.439304.245415.653513.575394.703308 1.08342.063179.644546-.385445 1.275993-3.812111 5.365585-2.136042 2.549286-4.471235 5.399811-5.189316 6.334511-1.305603 1.69944-1.305603 1.69944-1.534059 5.489674-.125653 2.084629-.159316 6.313144-.074805 9.396709.084511 3.083557.230177 6.126358.323702 6.761765.170044 1.155288.170044 1.155288 2.710707 2.403946 1.397363.686752 2.566128 1.218086 2.597254 1.18074.031126-.037354-.048947-1.434494-.177943-3.104752-.163934-2.12268-.157444-3.775207.021561-5.489677.140856-1.34906.477427-3.293808.747938-4.321663.270512-1.027847.87911-2.751808 1.352438-3.831009.532486-1.214065 1.109608-2.147415 1.513714-2.448032.604771-.449894.699873-.459404 1.284819-.128483.504945.285656.627243.519066.609479 1.163216-.012224.443222-.401098 1.699386-.86417 2.791473-.463069 1.092102-1.001453 2.598709-1.196407 3.348038-.194954.749321-.469456 2.431266-.610002 3.737655-.183819 1.708603-.184893 3.195-.003821 5.296051.138443 1.606438.381336 3.44606.539757 4.088051.158422.641991.419626 1.167252.580454 1.167252.160827 0 .596775-.643563.968769-1.430153.396511-.838425 1.316662-2.10891 2.223902-3.070633 1.229133-1.302948 1.991098-1.863747 3.703296-2.725586 1.354565-.681824 3.110752-1.320404 4.725384-1.718231 2.284351-.562836 3.010521-.633133 6.54089-.633133 3.371223 0 4.285957.080574 6.054096.533264 1.145561.293304 2.805588.913063 3.688942 1.377251.883358.464195 2.106979 1.327995 2.719154 1.919571.612179.591575 1.27285 1.331161 1.468155 1.643531l.355107.567948 1.734195-.567948c1.493511-.48912 2.155663-.565506 4.771035-.550323 2.752327.015976 3.222877.083305 5.022468.718613 1.092095.385543 2.143311.77182 2.336037.85839.245796.110421.502517-.109588.859939-.736976.280251-.491898 1.127015-1.466042 1.881699-2.164749.754677-.6987 2.049652-1.600129 2.877708-2.003167.828049-.403038 2.293961-.926879 3.257576-1.1641 1.356881-.33403 2.650986-.431305 5.737946-.431305 3.288849 0 4.389496.091667 6.293472.524132 1.418503.322197 3.163323.940437 4.528733 1.604667 1.502807.731079 2.66957 1.505959 3.607589 2.395912.76252.723458 1.764046 1.880715 2.225609 2.571679.839203 1.256301.839203 1.256301 1.158196.474556.175438-.42997.515533-1.682305.75576-2.782982.240219-1.100678.532821-3.048729.650207-4.32901.119385-1.302124.127823-3.048279.019135-3.962998-.106873-.899376-.374413-2.318512-.594551-3.15364-.220124-.835129-.704239-2.254273-1.075783-3.153649-.371552-.899376-.729622-1.898487-.795708-2.220257-.087608-.426563.043762-.739017.48497-1.153522.506775-.476082.708832-.532005 1.24318-.344086.424179.14917.808151.582649 1.145485 1.293171.279083.587833.820999 1.957226 1.204269 3.043095.383263 1.085876.827003 2.75753.986084 3.714798.191734 1.153778.245041 3.000442.158134 5.478134-.090721 2.586212-.275428 4.312607-.599563 5.603981-.257652 1.026481-.430107 1.904686-.383232 1.951561.046882.046875.689529-.116196 1.428108-.362389 1.342857-.447624 1.342857-.447624 2.369347-3.236381.56456-1.533814 1.388656-4.041626 1.831314-5.572922.442665-1.531296 1.05693-4.159332 1.365036-5.84008.308105-1.680748.699638-4.317368.870071-5.859146.170425-1.541787.301033-4.3275.290222-6.190491-.014816-2.553963-.131767-3.818253-.475403-5.139267-.455749-1.75203-.455749-1.75203-2.199577-1.827622-.959106-.04158-2.689918.040894-3.84626.183274-1.156342.142379-2.286537.314926-2.511559.383445-.366333.111542-.339668.226746.255044 1.10154.365295.537331 1.040588 1.660255 1.500648 2.495392.46006.835136 1.203842 2.411957 1.652863 3.504051.449012 1.092095 1.045677 2.879158 1.32592 3.971253.28025 1.092094.605507 2.616359.722816 3.387252.11731.770882.156944 1.731568.088089 2.134842-.091064.533264-.314407.811615-.818924 1.020592-.575561.238411-.786735.226402-1.239837-.070488-.445977-.292206-.594948-.693527-.812424-2.188591-.146477-1.00692-.534432-2.829422-.862129-4.050003-.327698-1.220581-1.213318-3.482338-1.968048-5.026138-.754731-1.543793-1.968041-3.56836-2.696236-4.499031-.755913-.966088-1.376389-2.016938-1.446106-2.449166-.095749-.59359-.004234-.862007.423843-1.243202.300278-.267387 1.074044-.601692 1.719475-.742889.645432-.141198 2.310875-.384697 3.700981-.541123 1.570496-.176719 3.602753-.225311 5.367378-.128341 1.561943.085845 3.470635.296882 4.241524.468986.770889.172096 1.755989.391335 2.189087.487183.787483.17427.787483.17427.062622-.879265-.398666-.579445-1.320442-1.584389-2.048393-2.2332-.727959-.648812-2.038269-1.555229-2.911804-2.01426-.873535-.45903-2.256867-.999603-3.074089-1.201271-1.439873-.355323-1.562088-.348297-3.949761.227105-1.355163.326576-3.745567 1.022209-5.312019 1.545852-1.566452.523651-3.959 1.374535-5.31678 1.890854-2.320091.882256-2.502228.916794-3.02594.573639-.366539-.240166-.557251-.587852-.557251-1.0159 0-.357933.131401-.822242.292-1.031822.160606-.209572 1.356025-.80162 2.656494-1.315666 1.300461-.514038 3.447235-1.311501 4.770599-1.772133s3.446404-1.101211 4.717865-1.423515c1.271462-.322296 3.329544-.739418 4.573532-.926934 1.243973-.187515 2.971344-.34156 3.838593-.342315.867256-.000756 1.576828-.09903 1.576828-.218384 0-.119347-.762139-.69175-1.693627-1.271996-.931488-.580253-2.744834-1.470619-4.029655-1.978622-1.284821-.507988-3.597488-1.263412-5.139275-1.678719-1.541778-.415313-3.045936-.905448-3.342575-1.08921-.392502-.243141-.519691-.509666-.467201-.979004.039673-.354698.616577-1.741089 1.282021-3.080864.665443-1.339775 1.281509-2.686767 1.369049-2.993324.159141-.557381.159141-.557381-2.261109-.439285-1.702278.083068-2.818878.270774-3.763961.632751-.739045.283051-1.84282.909637-2.452836 1.39241-.610023.482773-1.651641 1.472-2.314704 2.198288-.663064.72628-1.687684 2.010178-2.276932 2.853104-.589249.842926-1.580338 2.395256-2.202423 3.449631-.622078 1.054367-1.589043 2.734878-2.148804 3.734474-.678368 1.211395-1.191628 1.861076-1.539215 1.948311-.286804.071991-.739052.061828-1.004997-.022576-.265938-.084404-.548714-.413192-.628388-.730636-.087456-.348481.037956-1.013375.316521-1.678055.253761-.605484 1.067589-2.1521 1.808502-3.436913.740921-1.28482 2.030891-3.334686 2.866592-4.555267.835709-1.220573 2.495179-3.428123 3.687714-4.905663 1.192535-1.477546 3.29908-3.878242 4.681206-5.334892 1.951134-2.056335 2.438927-2.695877 2.181808-2.860565-.182136-.116653-.909324-.44162-1.615974-.72213-1.068108-.423996-1.777321-.512832-4.204857-.526687-2.328835-.013283-3.322067.090217-4.90567.5112-1.092087.290328-3.352204 1.206367-5.022469 2.035636-1.788086.887787-3.991523 2.225701-5.358543 3.253685-1.27694.960251-3.159554 2.567131-4.183586 3.570839-1.024025 1.003716-2.433357 2.508225-3.131829 3.343361-.698478.835129-1.769729 2.254265-2.380561 3.153641-.61084.899376-1.575776 2.476196-2.14431 3.504044-.568535 1.027854-1.449128 2.762367-1.956864 3.854454-.507744 1.092094-1.116768 2.274711-1.353386 2.628036-.259006.386749-.641895.64241-.962116.64241-.292541 0-.718414-.2061-.946369-.457985-.26157-.289039-.377625-.698387-.314575-1.109619.05495-.358398.595256-1.799499 1.200687-3.202469.605438-1.402961 1.74361-3.629966 2.529278-4.948905.785675-1.31894 2.011284-3.167016 2.723579-4.10685.712296-.939827 1.933213-2.432564 2.713158-3.317177.779945-.884621 2.364166-2.442497 3.5205-3.46196 1.156342-1.019462 3.194939-2.588356 4.530213-3.486427 1.335281-.898079 3.490272-2.14518 4.788864-2.771355 1.298599-.626159 3.307174-1.413231 4.463516-1.749023 1.156334-.335808 2.549194-.67247 3.095238-.748139.546051-.075683.991096-.202156.988998-.281051-.002098-.078896-.764229-.682656-1.693626-1.341683-.929383-.659027-2.951256-1.954879-4.493042-2.879661-1.541779-.924782-3.579193-2.055229-4.527596-2.512101-1.456817-.701789-2.044014-.848892-3.784706-.948143-1.39035-.079277-2.756409.009865-4.200798.274125-1.177246.215385-3.100815.699272-4.274597 1.075325-1.17379.376052-3.070786 1.161712-4.215546 1.74591-1.14476.584191-2.967991 1.652085-4.051613 2.373108-1.083622.721024-2.976608 2.270065-4.206638 3.44233-1.230022 1.172264-2.852726 2.959503-3.606007 3.971634-.753273 1.012138-1.80463 2.585136-2.336349 3.495559-.531712.910423-1.325123 2.482285-1.763134 3.493027-.438011 1.010734-1.054897 2.854179-1.370861 4.09655-.315968 1.242355-.637123 3.257484-.71368 4.478058-.093129 1.484718-.256867 2.354538-.494713 2.628036-.195538.224846-.638302.408806-.983918.408806-.345619 0-.818206-.209732-1.050201-.46608-.371067-.410034-.403072-.74015-.266094-2.744834.085636-1.253319.355442-3.172295.599571-4.26439.244133-1.092094.728775-2.77404 1.076988-3.737648.34821-.963615 1.053719-2.593002 1.567799-3.620849.514084-1.027855 1.574093-2.814919 2.355572-3.97126.868469-1.285034 2.605201-3.287308 4.467102-5.150093 2.040012-2.040978 3.77042-3.524613 5.23867-4.491585 1.205845-.794151 3.152847-1.914208 4.326679-2.489037 1.173825-.574806 3.235752-1.410156 4.582051-1.85633 1.346298-.44616 3.288787-.950615 4.316635-1.120995 1.027855-.170372 3.182846-.309769 4.788872-.309769 2.872962 0 2.948715.013642 4.699172.846352.978524.4655 3.304383 1.755737 5.168587 2.867203 1.864197 1.111465 4.269791 2.630447 5.345764 3.375503 1.940461 1.343682 1.956887 1.36351 2.027504 2.447273.071205 1.092614.071205 1.092614.955452 1.092614.486336 0 1.679398.203361 2.651238.451919.971847.248558 2.328956.732666 3.015808 1.075798.686851.343132 1.598038.95446 2.024864 1.358505.63298.59919.759926.875794.688568 1.500283-.066314.580398-.503456 1.18441-1.806732 2.496444l-1.719238 1.730797 3.520134-.026344c2.949211-.022072 3.6184.038033 4.125923.370575.484436.317413.605781.583633.605781 1.328979 0 .653809-.411987 1.799805-1.380027 3.838768l-1.380036 2.906708 1.321633.372696c.72689.204979 2.285026.688347 3.462501 1.074127 1.177483.385796 2.987801 1.111008 4.022942 1.611588 1.035133.500572 2.647217 1.430855 3.582405 2.067283.935188.636422 2.212372 1.683114 2.838203 2.325982.625824.642868 1.190995 1.446785 1.255928 1.786491.083367.436081-.039909.78579-.419372 1.189705-.441811.470291-.762276.572082-1.800995.572082-.694969 0-1.228531.090302-1.185707.200669.042831.110374.708603.723274 1.479492 1.361999.770889.638733 1.839737 1.731056 2.375229 2.427376.535484.696312 1.40274 2.127815 1.927223 3.181091.524498 1.053292.953621 2.233483.953621 2.622658 0 .493424-.173492.821259-.573219 1.083168-.536629.351616-.7118.33561-2.744835-.250824-1.194397-.34452-2.49437-.679481-2.888825-.744354-.717193-.117943-.717193-.117943-.424194 1.949837.161148 1.137275.299927 2.97232.308395 4.077881.008469 1.105552-.094078 3.3582-.227874 5.005882-.133797 1.647674-.498116 4.474937-.809601 6.282806s-.983971 4.758736-1.494423 6.557472c-.510445 1.798752-1.500221 4.847275-2.199486 6.774498-.69928 1.927224-1.344276 3.843239-1.433327 4.257805-.161911.753754-.161911.753754.963868.255768.619171-.273895 1.651916-.638107 2.29499-.809379.643067-.171273 1.79995-.310341 2.570839-.309044.867668.001465 1.757584.16716 2.336029.434974.513931.237938 1.219414.736458 1.567757 1.107796.34832.371353.795097 1.133667.992813 1.694046.1977.560387.359474 1.681847.359474 2.492142 0 .87651-.286529 2.591476-.707397 4.233887-.389061 1.518341-1.008614 3.549041-1.37677 4.512649-.368172.963615-1.142449 2.750679-1.720643 3.97126-.578201 1.220574-1.810981 3.638367-2.739517 5.372872-.92855 1.734504-2.156784 3.814674-2.729423 4.622604-.57264.80793-1.58487 1.901337-2.249398 2.429794-.66452.528458-1.764701 1.217522-2.444824 1.531258-.851326.392715-1.72081.586212-2.790848.621086-1.554252.050644-1.554252.050644-2.098152 2.022247-.299141 1.084374-.803665 3.075363-1.121162 4.424423-.31749 1.349061-.632202 2.689362-.699356 2.978447-.109978.47342-.261872.525605-1.529854.525605-1.407761 0-1.407761 0-1.250015-.876015.086761-.481804.613197-2.715637 1.169861-4.964066.556655-2.248428 1.650482-6.295608 2.430717-8.993728.780235-2.698113 1.839378-6.53505 2.353653-8.526512.569389-2.20488 1.08606-3.735039 1.321228-3.912857.212395-.160599.612595-.292.889328-.292s.697678.214943.935425.477646c.386452.427032.405548.631302.180145 1.92723-.138672.797265-.829559 3.552002-1.535309 6.121644-.705757 2.569633-1.357055 5.013702-1.447319 5.431274-.162834.753189-.157036.759186.730438.757011.563729-.001381 1.347008-.261657 2.117897-.703765.672829-.385865 1.643067-1.232583 2.156083-1.8816.513008-.64901 1.509437-2.207512 2.214279-3.463333.704841-1.255814 2.060432-3.873833 3.012436-5.81781.952003-1.943985 2.239563-5.035782 2.861252-6.870651 1.003082-2.960587 1.131279-3.565461 1.138763-5.373108.0074-1.783982-.054428-2.0999-.497681-2.543656-.334747-.335128-.888412-.541412-1.635215-.609237-.731949-.066475-1.642518.059517-2.588692.358192-.802773.25341-1.998993.806877-2.658264 1.229927-.659272.42305-1.507843 1.196266-1.88572 1.718254-.377868.521981-.911293 1.032448-1.185379 1.134346-.347526.129212-.67836.051422-1.093162-.257042-.327149-.243278-.620537-.642021-.65197-.886085-.031433-.24408.136017-1.312866.372108-2.375092.385353-1.733787.391198-1.920273.057152-1.823311-.204658.059411-1.173286.336327-2.152511.61538-1.780404.507385-1.780404.507385-1.900246 3.458542-.094284 2.321434-.244263 3.309547-.702889 4.630752-.320671.923783-.979164 2.387947-1.463317 3.2537-.484154.865746-1.696213 2.423974-2.693451 3.462731-.997246 1.03875-2.479599 2.284248-3.294121 2.767776-.81453.483521-2.128708 1.080307-2.92041 1.326195-.791695.245888-2.297234.564522-3.34565.708061-1.420242.194458-2.363464.192314-3.699822-.008423-.986488-.148178-2.582023-.57299-3.545639-.944015-.963615-.371033-2.439331-1.13665-3.279373-1.701378-.840027-.56472-2.25917-1.81356-3.15364-2.775185-.894463-.961624-2.135621-2.596405-2.758126-3.632835s-1.438286-2.773506-1.812843-3.860161c-.374558-1.08667-.7882-2.802215-.919212-3.812347-.13102-1.010132-.172204-2.475311-.091523-3.255966.146683-1.419373.146683-1.419373-1.028732-1.907853-.646461-.268661-1.985748-.668762-2.976173-.889106-1.259354-.280175-2.375962-.364754-3.71386-.281281-1.195675.074593-2.322018.30024-3.003563.601723-1.090481.482376-1.090481.482376-1.090481 3.194229 0 1.628471-.149231 3.38356-.373539 4.393204-.205448.924728-.835319 2.66597-1.399715 3.869423-.5644 1.203453-1.548115 2.892143-2.186035 3.752647-.637917.860504-1.727371 2.101288-2.421005 2.757301-.693634.656014-1.85429 1.572175-2.579239 2.035912-.724945.463745-2.080422 1.14724-3.012169 1.518867-.931748.371636-2.524021.790093-3.538384.929894-1.291183.177963-2.421837.182426-3.77.0149-1.059136-.131614-2.390179-.379089-2.957878-.549934-.567696-.170853-1.764302-.695366-2.659119-1.165581-.894817-.470207-2.176964-1.336075-2.849205-1.924133-.672245-.588066-1.679933-1.665161-2.239307-2.393547-.559376-.728386-1.340817-1.902504-1.736534-2.609154-.39572-.70665-1.000229-2.125603-1.343356-3.153229-.433141-1.297211-.662655-2.572319-.750742-4.170921-.126875-2.302506-.126875-2.302506-.834745-2.549271-.389328-.135727-1.785479-.809448-3.102558-1.497162-1.532166-.800033-2.450697-1.159774-2.550188-.998794-.085528.138382.327863 1.083496.918642 2.100265.62693 1.07898 1.074148 2.140435 1.074148 2.549454 0 .479065-.174799.815323-.552477 1.06279-.409883.268562-.704491.304199-1.141455.138061-.340896-.129608-.933704-.796394-1.407394-1.583023-.450127-.747512-1.199043-2.120819-1.664259-3.051811s-1.133816-2.012886-1.485779-2.404213c-.351963-.391334-1.060417-.860176-1.574344-1.041877-.513928-.181702-1.565142-.334588-2.336032-.339745-.991821-.006638-1.620279.123939-2.149489.446625-.411328.250793-.910656.77079-1.109615 1.155533-.224479.434097-.361747 1.31372-.361747 2.318115 0 .890213.200295 2.761337.445098 4.158066.244803 1.396713.713587 3.592926 1.04174 4.88047.328154 1.287544 1.028654 3.600212 1.556666 5.139267.528013 1.539055 1.483842 3.870491 2.124065 5.180977s1.633936 2.905334 2.208251 3.544105c.574314.638779 1.523047 1.393212 2.10829 1.676522.888397.430068 1.344025.497154 2.75963.406303.932553-.059845 1.798462-.172417 1.924248-.25016.144688-.089417.032711-1.497658-.304834-3.833603-.293444-2.030747-.605708-4.880989-.693919-6.333893-.133545-2.1996-.101137-2.700874.193676-2.995682.215556-.215561.661042-.32447 1.138792-.278412.563887.05436.863766.240006 1.065567.659653.154459.321205.39374 1.740341.531739 3.153648.137996 1.4133.672516 5.460473 1.18782 8.993721.515305 3.533249 1.144194 8.053475 1.397532 10.044938.253336 1.99147.530006 4.225296.614822 4.964073.154209 1.343216.154209 1.343216-1.265259 1.343216s-1.419468 0-1.557235-.992813c-.075774-.546051-.341607-2.543816-.590741-4.439476-.249134-1.895661-.580572-4.393326-.736528-5.55037-.266611-1.977997-.312431-2.093101-.766792-1.926216-.26578.097626-1.48189.177498-2.702467.177498-1.994414 0-2.357025-.069817-3.579439-.689201-.822521-.416764-1.896887-1.262917-2.717866-2.140549-.993298-1.061836-1.740521-2.22477-2.784262-4.33326-.784633-1.58506-1.949031-4.458747-2.587551-6.385978-.638521-1.927224-1.497969-5.133431-1.909887-7.124901-.616033-2.978287-.75237-4.183609-.768266-6.792038-.019118-3.136932-.011687-3.183563.687659-4.315491.438252-.709328 1.141386-1.413017 1.849816-1.851272 1.092642-.675934 1.256835-.706986 3.738758-.706986zm36.408018 40.763764c-.292115 0-.687718-.156601-.87912-.348-.191403-.191399-.413571-.64653-.49371-1.011406-.092861-.422806.061459-1.292046.42553-2.396835.314178-.953385.787475-2.298722 1.051773-2.989632.264297-.690903.663185-1.458008.886413-1.704674.244072-.269699.64061-.420799.994702-.379028.345814.040787.72987.321907.930572.681152.314888.563614.282063.77475-.417671 2.686432-.417675 1.141113-.872547 2.652916-1.010818 3.359566-.138272.70665-.410061 1.46878-.603978 1.693619-.19392.224846-.591579.408806-.883693.408806zm15.320526-.338295c-.728409.057197-1.689476-.033707-2.219227-.209923-.513931-.170944-1.570892-.634285-2.348808-1.029648-.777924-.395355-1.986817-.899262-2.68644-1.119797-.699623-.220527-1.508564-.547165-1.797645-.72586-.353127-.218277-.525608-.551346-.525608-1.014939 0-.487213.180435-.808265.61388-1.09227.574066-.376136.707721-.377617 2.060428-.022834.795601.208671 2.385258.816749 3.532574 1.351287 1.295719.603676 2.416203.969872 2.957508.966568.584206-.00357 1.508263-.352287 2.803238-1.057869 1.062469-.578895 2.924065-1.337005 4.136871-1.684684 1.984711-.568962 2.264885-.598763 2.803238-.298096.398567.222603.621399.569427.66787 1.039513.04483.453567-.080284.838844-.350411 1.079025-.231079.205467-1.207336.606216-2.169471.890564-.962143.28434-2.749207 1.03698-3.97126 1.672531-1.654961.860687-2.549759 1.181282-3.506737 1.256432zm-23.584603-16.969231c1.097222.01149 2.595929-.135651 3.33046-.326965.734531-.191323 1.939236-.653382 2.677116-1.026802.737881-.373414 1.896126-1.121453 2.573876-1.662301.677746-.540847 1.819279-1.733589 2.536739-2.650528.717461-.916946 1.651287-2.355857 2.075169-3.197578.423885-.841721 1.005859-2.304604 1.293274-3.250862.373085-1.228302.52919-2.363587.545711-3.96875.021549-2.094223-.029598-2.355415-.746399-3.811447-.491623-.998627-1.12389-1.850464-1.750724-2.358704-.53965-.437561-1.417199-1.015129-1.950108-1.283493s-1.741802-.706314-2.686436-.973205c-.966907-.273201-2.827808-.547654-4.25806-.627991-1.553852-.087296-3.410187-.028946-4.77969.15023-1.231522.161125-2.926556.504997-3.766731.764168-.840183.259171-2.148979.784576-2.90844 1.167572-.75946.38298-1.943798 1.22876-2.631859 1.879509-.747659.7071-1.528877 1.755539-1.941568 2.605682-.379797.782387-.790472 2.06556-.912613 2.851509-.135803.873887-.140429 2.079201-.011906 3.102768.115593.920563.473208 2.43013.794703 3.354592.321497.924461 1.073711 2.396766 1.671585 3.271782.597877.87503 1.677593 2.118263 2.399364 2.762741.721779.644485 1.954407 1.488556 2.739182 1.875717s1.941112.845123 2.569637 1.0177c.628525.172569 2.040497.323166 3.137718.334656zm47.06173.002747c1.156341.006927 2.666778-.137612 3.356544-.321198s1.808373-.614227 2.485802-.95697c.677437-.342751 1.770088-1.094155 2.428124-1.669792.658042-.575638 1.663246-1.700783 2.233779-2.500321.570534-.799537 1.349923-2.114647 1.731957-2.922462.382042-.807831.822555-2.184632.978912-3.059578.160904-.900368.23301-2.490334.166123-3.663346-.093666-1.642791-.255181-2.352356-.778954-3.422027-.363426-.742226-1.148269-1.844727-1.744079-2.450012-.595818-.605294-1.705834-1.429619-2.466706-1.831849-.760872-.402229-2.246704-1.001716-3.301834-1.332191-1.055137-.330482-2.879761-.724159-4.054733-.874847-1.218582-.156273-3.154129-.214035-4.505654-.134446-1.303146.076737-3.208404.356667-4.233901.622071-1.025498.265396-2.433159.822265-3.128129 1.237472-.694984.415207-1.665298 1.258652-2.156265 1.874314-.490967.615661-1.079788 1.713012-1.308487 2.438552-.258873.821198-.407829 1.985901-.394615 3.085465.011665.971466.197617 2.4496.413223 3.284729.215607.835136.748993 2.274368 1.185311 3.198288.436325.92392 1.215545 2.301628 1.731613 3.061569.516067.759941 1.626099 2.011948 2.466736 2.782242s2.14656 1.729996 2.902038 2.13266c.755486.402664 1.939972.884437 2.632187 1.070595.692223.186165 2.204666.344146 3.361008.351082zm-8.935326-35.259522c-.224838-.001968-.535804-.08429-.691025-.182945-.155227-.098656-.713562-1.215752-1.240737-2.482445-.527184-1.266678-1.42582-3.233513-1.996956-4.370728-.571144-1.137214-1.471527-2.77523-2.000847-3.640045-.529335-.864814-1.512154-2.310943-2.184044-3.21363-.671906-.902687-1.94635-2.362793-2.8321-3.24469-.885757-.881897-2.346313-2.126686-3.245682-2.766205-.899376-.639511-2.318512-1.507416-3.153644-1.928658-.835137-.421249-2.149155-.986267-2.92004-1.255615-.770894-.26934-1.853062-.603668-2.40482-.74295-.699543-.17659-1.083046-.428482-1.266991-.832199-.2192-.481095-.183921-.686409.208683-1.214623.290669-.391052.737393-.662453 1.160931-.705307.378651-.0383 1.577152.210648 2.663342.55323 1.086185.342575 2.658172.969704 3.493309 1.393631.835128.42392 2.326171 1.331307 3.313423 2.016419.987251.685104 2.478523 1.850944 3.313919 2.590759.835403.739815 2.215751 2.211517 3.067436 3.270447.851692 1.058929 2.11126 2.830101 2.799034 3.935936.687782 1.105827 1.739922 2.985069 2.338089 4.176086.598152 1.19101 1.455979 3.071961 1.906273 4.179875.450295 1.107921.874863 2.344211.943489 2.747318.09314.547058-.000366.858047-.368729 1.22641-.27143.271431-.677467.491897-.902313.489929zm-65.492629-13.54541c-.286838 0-.924035-.463402-1.525748-1.109612-.568267-.61029-1.835069-2.148437-2.815115-3.418098s-2.369608-3.274574-3.087915-4.455376c-.718307-1.180801-1.859889-3.296921-2.536847-4.702499-.676958-1.405571-1.498448-3.342705-1.825532-4.304733-.327084-.962029-.856905-2.642685-1.17738-3.73478-.320474-1.092094-.640415-2.458671-.71098-3.036842-.106207-.870194-.043993-1.127396.361285-1.493607.407849-.368522.714318-.418693 1.835703-.300468.740365.078049 2.502454.473503 3.915753.878792 1.413299.405281 3.506244 1.158088 4.650986 1.672905 1.144742.514808 2.721564 1.308845 3.504049 1.764526.782483.455688 2.211108 1.408768 3.174722 2.117981.963613.709206 2.691196 2.200432 3.839071 3.31382 1.717039 1.665466 2.104231 2.171577 2.183987 2.854729.081764.700355-.002335.895416-.537144 1.245834-.562931.368851-.695118.377708-1.177984.078964-.299145-.185089-1.364527-1.112251-2.367516-2.060364-1.002987-.948112-2.635063-2.331825-3.626835-3.074905-.991775-.743073-2.568596-1.773445-3.50405-2.289688-.935453-.516258-2.52396-1.26815-3.530016-1.670883s-2.582878-.924767-3.504049-1.16008c-1.384467-.353661-1.687789-.372093-1.749449-.106346-.041026.176818.362319 1.611419.896321 3.187995.534003 1.576577 1.478149 3.917717 2.098101 5.202538.619953 1.284813 1.721889 3.28212 2.448748 4.438461.726858 1.156334 2.051969 3.048516 2.94469 4.204857.892722 1.156334 1.950036 2.490479 2.349589 2.96476.399551.474281.775907 1.12101.836343 1.437157.072817.380912-.055437.74015-.380184 1.064895-.269538.269539-.711709.490067-.982604.490067zm28.726512-12.848175c-.544056 0-.866497-.277809-1.830139-1.576821-.643356-.867248-1.801556-2.838279-2.573788-4.380058-.772232-1.541786-1.624832-3.644218-1.894664-4.672066-.31601-1.20375-.536568-2.949577-.619759-4.90567-.077732-1.827789-.019074-3.805458.147335-4.967415.152065-1.061805.564541-2.743751.916607-3.737648.352066-.993896 1.031666-2.50663 1.510223-3.361641.478562-.855003 1.310238-2.116455 1.848168-2.803237.537929-.686776 1.642685-1.905327 2.455013-2.707886.812325-.802567 2.23856-2.021103 3.169418-2.707855.930855-.686753 1.936039-1.377877 2.233738-1.535828.442192-.234634.639599-.222771 1.078434.064758.295441.193581.588066.546623.65028.784531.062218.237915.03299.649185-.064949.913925-.097935.264755-1.054622 1.166023-2.125965 2.002831-1.071346.836799-2.631187 2.246711-3.46632 3.133125-.835129.886413-1.92226 2.221107-2.415848 2.96598-.493583.744866-1.250828 2.119202-1.682766 3.054078-.431934.934875-.962684 2.602363-1.179435 3.70552-.296051 1.506752-.362114 2.693291-.265534 4.76928.075451 1.621765.323261 3.499405.599804 4.544677.259178.97963.839512 2.55645 1.289627 3.504044.450115.947586 1.420048 2.651031 2.155399 3.785416.73536 1.134391 1.386361 2.320694 1.446679 2.636222.067031.350655-.051834.752152-.305737 1.032715-.228474.252465-.712593.459023-1.075821.459023zm-15.212522-2.102432c-.232968 0-.638275-.236527-.900685-.525605-.262413-.289077-.883125-1.156341-1.379366-1.927223-.496238-.770889-1.670641-2.157226-2.609783-3.080742-.939142-.923523-2.636207-2.259323-3.771257-2.968437-1.135048-.709114-3.184918-1.72792-4.555264-2.264008-1.370345-.536087-3.662916-1.270774-5.094601-1.632637-1.431687-.361854-3.793103-.823905-5.247592-1.026771-1.454491-.202873-2.876894-.521103-3.160898-.707192-.284004-.18608-.587783-.563339-.675066-.83834-.125781-.396302.092821-.754685 1.054012-1.727967.666989-.675377 2.070728-1.705696 3.119419-2.289596 1.048692-.583908 2.841075-1.38813 3.983073-1.787163 1.408604-.492172 2.738794-.772514 4.136169-.871712 2.059806-.146209 2.059806-.146209 2.403663-1.155365.189121-.555038.728123-1.740425 1.197785-2.634193.641246-1.220299 1.474516-2.229149 3.345682-4.050675 1.370466-1.334106 3.170614-2.885223 4.000328-3.446914.829716-.561699 1.723247-1.061882 1.985628-1.111504.266037-.050331.709549.127129 1.002663.401184.489347.457505.525718.688202.527242 3.343941.001171 2.039597.134392 3.406303.467459 4.795631.256205 1.068695.819073 2.70765 1.250822 3.642113.431749.934456 1.286583 2.4674 1.899635 3.406532.613051.939133 1.16543 1.901757 1.227515 2.139161.06208.237403-.059441.694625-.270054 1.016059-.246556.376297-.599961.58442-.992367.58442-.395977 0-.884476-.291626-1.394684-.832604-.431883-.457931-1.224182-1.58416-1.76066-2.502739-.53648-.918579-1.317228-2.462372-1.734997-3.430656-.417768-.968285-.915596-2.548927-1.106283-3.512543-.190683-.963608-.417601-2.362457-.504253-3.108551-.086655-.746094-.251688-1.324257-.36674-1.284813-.115051.039437-.846387.633141-1.625192 1.319328-.778803.686196-1.824562 1.789963-2.323912 2.452836-.499348.662864-1.169676 1.730819-1.489618 2.37323-.319945.64241-.655558 1.668571-.745812 2.280365-.090254.611801-.376346 1.382186-.635761 1.711982-.459232.583824-.522182.595413-2.388263.439972-1.581745-.131759-2.235752-.072098-3.743338.341507-1.004708.275635-2.344922.724075-2.978256.996529-.633333.272453-1.375218.676506-1.648634.897903-.48814.395279-.471945.407486.896591.675789.76654.150284 2.518208.586022 3.892594.968315 1.374386.382294 3.424254 1.066628 4.555263 1.520752 1.131008.454117 2.844789 1.249138 3.808403 1.766701.963613.517555 2.450464 1.458633 3.304113 2.091278s2.237356 1.876686 3.074903 2.764526c.837548.887848 1.952454 2.349907 2.477566 3.249024.525114.899116.954752 1.899544.954752 2.223167 0 .343224-.216335.739937-.519182.952057-.285553.200005-.709795.363648-.942762.363648z" fill="#99999950" fill-rule="evenodd"/></svg>